<svg xmlns="http://www.w3.org/2000/svg" width="425" height="248" viewBox="0 0 425 248"><style>text{font-family:ui-monospace,SFMono-Regular,Menlo,Consolas,monospace;font-size:13px;white-space:pre;fill:#24292f}.bg{fill:#f6f8fa;stroke:#d0d7de}.sep{stroke:#d0d7de}.dim{fill:#57606a}.acc{fill:#0969da}.grn{fill:#1a7f37}.ylw{fill:#9a6700}.red{fill:#cf222e}.pur{fill:#8250df}.bar{fill:#d0d7de}@media (prefers-color-scheme:dark){text{fill:#c9d1d9}.bg{fill:#0d1117;stroke:#30363d}.sep{stroke:#30363d}.dim{fill:#8b949e}.acc{fill:#58a6ff}.grn{fill:#3fb950}.ylw{fill:#d29922}.red{fill:#f85149}.pur{fill:#bc8cff}.bar{fill:#21262d}}.ln{opacity:0;animation:fi .45s ease forwards}@keyframes fi{to{opacity:1}}</style><rect class="bg" x=".5" y=".5" width="424" height="247" rx="9"/><circle cx="18" cy="18" r="5.5" fill="#ff5f56"/><circle cx="36" cy="18" r="5.5" fill="#ffbd2e"/><circle cx="54" cy="18" r="5.5" fill="#27c93f"/><text class="dim" x="212.5" y="22" text-anchor="middle" style="font-size:12px">cloc</text><line class="sep" x1="0" y1="36" x2="425" y2="36"/><clipPath id="t4"><rect x="20" y="51" width="0" height="22"><animate attributeName="width" values="0.0;7.8;15.6;23.4;31.2;39.0;46.8;54.6;62.4;70.2;78.0;85.8;93.6;101.4;109.2;117.0;124.8;132.6;140.4;148.2;156.0;163.8;171.6;179.4;187.2" keyTimes="0.0000;0.0417;0.0833;0.1250;0.1667;0.2083;0.2500;0.2917;0.3333;0.3750;0.4167;0.4583;0.5000;0.5417;0.5833;0.6250;0.6667;0.7083;0.7500;0.7917;0.8333;0.8750;0.9167;0.9583;1.0000" calcMode="discrete" begin="0.2s" dur="1.0s" fill="freeze"/></rect></clipPath><g clip-path="url(#t4)"><text x="20" y="66"><tspan class="grn">$ </tspan>cloc --by-lang ~/repos</text></g><clipPath id="c3"><rect x="20" y="82" width="385" height="10" rx="5"/></clipPath><clipPath id="r2"><rect x="20" y="82" width="0" height="10"><animate attributeName="width" from="0" to="385" begin="1.3s" dur="1.2s" fill="freeze"/></rect></clipPath><g clip-path="url(#c3)"><g clip-path="url(#r2)"><rect x="20.0" y="82" width="194.1" height="10" fill="#3178c6"/><rect x="214.1" y="82" width="150.1" height="10" fill="#f1e05a"/><rect x="364.2" y="82" width="19.4" height="10" fill="#563d7c"/><rect x="383.6" y="82" width="12.6" height="10" fill="#e34c26"/><rect x="396.3" y="82" width="8.7" height="10" fill="#3572A5"/></g></g><circle cx="25" cy="120" r="5" fill="#3178c6"/><text class="ln" x="38" y="124" style="animation-delay:1.80s">TypeScript        <tspan class="dim"> 50.4%</tspan></text><circle cx="25" cy="142" r="5" fill="#f1e05a"/><text class="ln" x="38" y="146" style="animation-delay:2.00s">JavaScript        <tspan class="dim"> 39.0%</tspan></text><circle cx="25" cy="164" r="5" fill="#563d7c"/><text class="ln" x="38" y="168" style="animation-delay:2.20s">CSS               <tspan class="dim">  5.0%</tspan></text><circle cx="25" cy="186" r="5" fill="#e34c26"/><text class="ln" x="38" y="190" style="animation-delay:2.40s">HTML              <tspan class="dim">  3.3%</tspan></text><circle cx="25" cy="208" r="5" fill="#3572A5"/><text class="ln" x="38" y="212" style="animation-delay:2.60s">Python            <tspan class="dim">  2.3%</tspan></text></svg>